Coordinates
version=1
nRows=60
nColumns=12
inDegrees=yes

Units are S.I. units (second, meters, Newtons, ...)
Angles are in degrees

endheader
time	SC_y	SC_z	SC_x	AC_y	AC_z	AC_x	GH_y	GH_z	GH_yy	EL_x	PS_y
       0.0              -12.59         -1.674          62.08          31.19          -19.1          3.291         -113.7         -11.19         -109.3          118.9          113.2
    0.0431              -12.59         -1.671          62.08          31.19          -19.1          3.292         -113.7         -11.18         -109.3          118.8          113.2
    0.0862              -12.59         -1.668          62.07          31.19          -19.1          3.294         -113.7         -11.17         -109.3          118.8          113.2
    0.1293              -12.59         -1.664          62.07          31.19          -19.1          3.295         -113.7         -11.15         -109.3          118.8          113.2
    0.1724              -12.59          -1.66          62.07          31.19          -19.1          3.297         -113.7         -11.14         -109.3          118.8          113.2
    0.2155               -12.6         -1.656          62.07          31.19          -19.1          3.299         -113.7         -11.13         -109.3          118.8          113.2
    0.2586               -12.6         -1.652          62.07          31.19          -19.1          3.301         -113.7         -11.11         -109.3          118.8          113.2
    0.3017               -12.6         -1.647          62.06          31.19          -19.1          3.303         -113.7         -11.09         -109.3          118.7          113.2
    0.3448               -12.6         -1.642          62.06          31.19          -19.1          3.305         -113.7         -11.07         -109.3          118.7          113.2
    0.3879               -12.6         -1.637          62.06          31.19         -19.09          3.307         -113.7         -11.05         -109.3          118.7          113.2
     0.431              -12.61         -1.631          62.06          31.19         -19.09           3.31         -113.7         -11.03         -109.4          118.7          113.3
    0.4741              -12.61         -1.625          62.05          31.19         -19.09          3.312         -113.7         -11.01         -109.4          118.7          113.3
    0.5172              -12.61         -1.619          62.05          31.19         -19.09          3.315         -113.7         -10.98         -109.4          118.6          113.3
    0.5603              -12.61         -1.611          62.05          31.19         -19.09          3.319         -113.7         -10.96         -109.4          118.6          113.3
    0.6034              -12.62         -1.604          62.04          31.19         -19.09          3.322         -113.7         -10.93         -109.4          118.6          113.3
    0.6465              -12.62         -1.595          62.04          31.19         -19.09          3.326         -113.7         -10.89         -109.4          118.5          113.3
    0.6896              -12.62         -1.586          62.03          31.19         -19.09           3.33         -113.7         -10.86         -109.4          118.5          113.3
    0.7327              -12.63         -1.576          62.03          31.19         -19.08          3.334         -113.7         -10.82         -109.4          118.5          113.3
    0.7758              -12.63         -1.566          62.02          31.19         -19.08          3.339         -113.7         -10.78         -109.4          118.4          113.3
    0.8189              -12.64         -1.554          62.02          31.18         -19.08          3.344         -113.7         -10.74         -109.4          118.4          113.4
     0.862              -12.64         -1.541          62.01          31.18         -19.08           3.35         -113.7         -10.69         -109.4          118.3          113.4
    0.9051              -12.65         -1.526          62.01          31.18         -19.08          3.356         -113.6         -10.63         -109.4          118.3          113.4
    0.9482              -12.65         -1.511           62.0          31.18         -19.07          3.363         -113.6         -10.57         -109.4          118.2          113.4
    0.9913              -12.66         -1.493          61.99          31.18         -19.07          3.371         -113.6          -10.5         -109.5          118.1          113.5
     1.034              -12.67         -1.474          61.98          31.18         -19.07          3.379         -113.6         -10.43         -109.5          118.0          113.5
     1.078              -12.67         -1.452          61.97          31.18         -19.06          3.389         -113.6         -10.35         -109.5          117.9          113.5
     1.121              -12.68         -1.428          61.96          31.18         -19.06          3.399         -113.6         -10.26         -109.5          117.8          113.5
     1.164              -12.69           -1.4          61.95          31.18         -19.05          3.411         -113.6         -10.15         -109.5          117.7          113.6
     1.207              -12.71         -1.369          61.93          31.18         -19.05          3.425         -113.5         -10.03         -109.5          117.6          113.6
      1.25              -12.72         -1.334          61.91          31.18         -19.04           3.44         -113.5           -9.9         -109.6          117.5          113.7
     1.293              -12.73         -1.294          61.89          31.17         -19.03          3.458         -113.5         -9.748         -109.6          117.3          113.7
     1.336              -12.75         -1.248          61.87          31.17         -19.03          3.478         -113.4         -9.573         -109.6          117.1          113.8
     1.379              -12.77         -1.195          61.85          31.17         -19.02          3.502         -113.4         -9.371         -109.7          116.9          113.9
     1.422               -12.8         -1.133          61.82          31.17         -19.01          3.529         -113.4         -9.136         -109.7          116.6          114.0
     1.465              -12.82         -1.061          61.78          31.17         -18.99           3.56         -113.3         -8.861         -109.8          116.3          114.1
     1.509              -12.86        -0.9761          61.74          31.16         -18.98          3.598         -113.2         -8.537         -109.8          116.0          114.2
     1.552               -12.9         -0.875          61.69          31.16         -18.96          3.642         -113.2         -8.152         -109.9          115.6          114.3
     1.595              -12.94        -0.7538          61.64          31.15         -18.94          3.696         -113.1         -7.691         -110.0          115.1          114.5
     1.638               -13.0        -0.6072          61.57          31.15         -18.91           3.76         -113.0         -7.133         -110.1          114.5          114.7
     1.681              -13.07         -0.428          61.48          31.14         -18.88          3.839         -112.9         -6.451         -110.3          113.7          115.0
     1.724              -13.15        -0.2069          61.37          31.13         -18.84          3.936         -112.7          -5.61         -110.4          112.8          115.3
     1.767              -13.26        0.06877          61.24          31.12         -18.79          4.057         -112.5         -4.561         -110.6          111.7          115.7
      1.81              -13.39         0.4161          61.08          31.11         -18.73           4.21         -112.3         -3.239         -110.9          110.3          116.2
     1.853              -13.56         0.8576          60.86          31.09         -18.65          4.404         -111.9         -1.559         -111.2          108.4          116.8
     1.896              -13.77          1.423          60.59          31.07         -18.55          4.653         -111.5         0.5921         -111.7          106.1          117.6
      1.94              -14.05          2.148          60.25          31.04         -18.42          4.972         -111.0          3.352         -112.2          103.1          118.6
     1.983              -14.41          3.074           59.8          31.01         -18.26          5.379         -110.3          6.877         -112.9          99.31          120.0
     2.026              -14.85          4.239          59.24          30.96         -18.05          5.891         -109.5          11.31         -113.8          94.51          121.6
     2.069               -15.4          5.658          58.56          30.91          -17.8          6.516         -108.5          16.71         -114.8          88.66          123.7
     2.112              -16.03          7.304          57.78          30.85         -17.51          7.239         -107.3          22.97         -116.1          81.89          126.0
     2.155              -16.71          9.085          56.92          30.78          -17.2          8.023         -106.0          29.75         -117.4          74.55          128.5
     2.198              -17.39          10.87          56.07          30.71         -16.88          8.806         -104.8          36.53         -118.8          67.22          131.1
     2.241              -18.02          12.51          55.28          30.65         -16.59           9.53         -103.6          42.79         -120.0          60.44          133.4
     2.284              -18.56          13.93           54.6          30.59         -16.34          10.15         -102.6           48.2         -121.1           54.6          135.5
     2.328              -19.01           15.1          54.04          30.55         -16.13          10.67         -101.7          52.63         -121.9           49.8          137.1
     2.371              -19.36          16.02           53.6          30.51         -15.97          11.07         -101.1          56.15         -122.6          45.99          138.4
     2.414              -19.64          16.75          53.25          30.49         -15.84          11.39         -100.6          58.91         -123.2           43.0          139.5
     2.457              -19.86          17.31          52.98          30.46         -15.74          11.64         -100.1          61.07         -123.6          40.67          140.3
       2.5              -20.03          17.75          52.77          30.45         -15.66          11.84         -99.83          62.75         -123.9          38.85          140.9
     2.543              -20.16           18.1           52.6          30.43          -15.6          11.99         -99.58          64.07         -124.2          37.42          141.4
